<svg width="24" height="24" viewBox="0 0 24 24" fill="none" xmlns="http://www.w3.org/2000/svg">
<g clip-path="url(#clip0_103_4051)">
<path d="M6.66797 11.3467V11.3334" stroke="white" stroke-width="1.5" stroke-linecap="round" stroke-linejoin="round"/>
<path d="M17.3359 11.3467V11.3334" stroke="white" stroke-width="1.5" stroke-linecap="round" stroke-linejoin="round"/>
<path d="M6.66797 7.33335V6.00002C6.66797 4.58553 7.22988 3.22898 8.23006 2.22878C9.23026 1.22859 10.5868 0.666687 12.0013 0.666687C13.4158 0.666687 14.7724 1.22859 15.7725 2.22878C16.7728 3.22898 17.3346 4.58553 17.3346 6.00002V7.33335" stroke="white" stroke-width="1.5" stroke-linecap="round" stroke-linejoin="round"/>
<path d="M22.4278 20.4452L21.5389 9.77859C21.4237 8.39647 20.2683 7.33337 18.8814 7.33337H17.3351H6.66845H5.12215C3.73524 7.33337 2.57987 8.39647 2.46469 9.77859L1.5758 20.4452C1.44624 21.9999 2.67315 23.3334 4.23326 23.3334H19.7703C21.3305 23.3334 22.5574 21.9999 22.4278 20.4452Z" stroke="white" stroke-width="1.5" stroke-linecap="round" stroke-linejoin="round"/>
</g>
<defs>
<clipPath id="clip0_103_4051">
<rect width="24" height="24" fill="white"/>
</clipPath>
</defs>
</svg>
