<svg width="209" height="94" viewBox="0 0 209 94" fill="none" xmlns="http://www.w3.org/2000/svg">
<path d="M154.327 41.6282V38.6222H186.329V41.6282H154.327ZM201.423 62.3967L208.494 64.4463V65.8582H180.481V64.4463L188.595 62.4878L166.43 11.7506L168.107 11.3407L148.299 62.3057L156.775 64.4918V65.8582H138.055V64.4918L144.99 62.169L169.557 0H173.773L201.423 62.3967Z" fill="#791616"/>
<path d="M124.042 30.7883C128.484 30.7883 131.929 29.6041 134.377 27.2357C136.854 24.8674 138.093 21.3908 138.093 16.8059C138.093 14.0125 137.565 11.629 136.507 9.65535C135.449 7.65136 133.727 6.1332 131.34 5.10084C128.983 4.06849 125.84 3.55231 121.911 3.55231H107.588L108.812 0.728516H125.9C131.974 0.728516 136.764 1.41169 140.269 2.77804C143.805 4.1444 146.328 6.01174 147.839 8.38009C149.38 10.7181 150.151 13.39 150.151 16.396C150.151 19.1287 149.395 21.6641 147.884 24.002C146.373 26.3097 144.122 28.2074 141.13 29.6952C138.139 31.183 134.437 32.0332 130.025 32.2457V32.1091C132.956 32.1698 135.359 32.5645 137.232 33.2932C139.136 33.9916 140.707 35.0695 141.946 36.5269C143.215 37.9844 144.364 39.8669 145.391 42.1745L151.646 55.9747C152.764 58.4038 153.747 60.1952 154.593 61.349C155.469 62.4724 156.436 63.186 157.494 63.4896C158.582 63.7932 159.987 63.9451 161.709 63.9451V65.858C155.858 65.858 150.191 65.9187 147.713 65.858C146.232 65.3114 143.593 63.9451 142.626 62.7609C141.659 61.5767 140.738 59.9978 139.861 58.0242L132.518 41.4913C131.551 39.3052 130.645 37.6504 129.798 36.5269C128.952 35.3731 128.061 34.5989 127.124 34.2041C126.218 33.779 125.099 33.5665 123.77 33.5665H108.63L107.407 30.7883H124.042ZM117.061 0.728516V62.3965L124.948 64.4461V65.858H97.1172V64.4461L104.959 62.3965V4.1444L97.1172 2.14041V0.728516H117.061Z" fill="#791616"/>
<path d="M102.616 39.9884V4.09885L94.0949 2.14041V0.728516H113.631V2.14041L105.835 4.09885V40.7626C105.835 46.4406 104.792 51.2228 102.707 55.1093C100.652 58.9655 97.6607 61.8955 93.7323 63.8995C89.8039 65.8731 85.0445 66.86 79.454 66.86C73.501 66.86 68.4545 65.8428 64.3146 63.8084C60.2049 61.7437 57.0773 58.677 54.9318 54.6083C52.8165 50.5396 51.7588 45.469 51.7588 39.3963V4.0533L44.0078 2.14041V0.728516H71.6577V2.14041L63.8613 4.0533V40.1705C63.8613 44.7554 64.5715 48.566 65.9917 51.6024C67.4422 54.6083 69.5877 56.84 72.4283 58.2975C75.299 59.7549 78.8799 60.4836 83.1709 60.4836C87.3713 60.4836 90.9068 59.7701 93.7776 58.343C96.6786 56.8856 98.8694 54.6539 100.35 51.6479C101.861 48.6116 102.616 44.7251 102.616 39.9884Z" fill="#791616"/>
<path d="M16.2726 41.6282V38.6222H48.274V41.6282H16.2726ZM63.3681 62.3967L70.4392 64.4463V65.8582H42.4267V64.4463L50.5403 62.4878L28.3751 11.7506L30.0522 11.3407L10.2441 62.3057L18.7203 64.4918V65.8582H0V64.4918L6.93513 62.169L31.5027 0H35.7182L63.3681 62.3967Z" fill="#791616"/>
<path d="M183.259 90.1675C182.711 90.1675 182.196 90.0869 181.715 89.9256C181.243 89.7643 180.851 89.5413 180.539 89.2566L180.879 88.6162C181.228 88.9008 181.606 89.1143 182.012 89.2566C182.418 89.3895 182.843 89.4559 183.287 89.4559C183.891 89.4559 184.349 89.342 184.661 89.1143C184.973 88.8866 185.128 88.5782 185.128 88.1892C185.128 87.8855 185.029 87.6388 184.831 87.4491C184.633 87.2593 184.302 87.117 183.839 87.0221L182.565 86.7516C181.96 86.6093 181.507 86.3816 181.205 86.0685C180.912 85.7554 180.766 85.3616 180.766 84.8871C180.766 84.4791 180.87 84.1186 181.077 83.8055C181.295 83.4923 181.601 83.2456 181.998 83.0653C182.395 82.8851 182.862 82.7949 183.4 82.7949C183.91 82.7949 184.378 82.8803 184.803 83.0511C185.237 83.2124 185.591 83.4449 185.865 83.7485L185.497 84.3748C185.213 84.0901 184.892 83.8766 184.534 83.7343C184.184 83.592 183.811 83.5208 183.415 83.5208C182.829 83.5208 182.385 83.6441 182.083 83.8908C181.781 84.1281 181.63 84.4459 181.63 84.8444C181.63 85.1481 181.724 85.3995 181.913 85.5988C182.102 85.7886 182.399 85.9309 182.805 86.0258L184.08 86.3104C184.722 86.4528 185.199 86.671 185.511 86.9651C185.823 87.2593 185.978 87.6483 185.978 88.1322C185.978 88.5497 185.865 88.915 185.638 89.2282C185.412 89.5318 185.095 89.7643 184.689 89.9256C184.283 90.0869 183.806 90.1675 183.259 90.1675Z" fill="#791616"/>
<path d="M150.098 90.0537V84.5171C150.098 84.2609 150.088 84 150.069 83.7343C150.05 83.4686 150.022 83.1982 149.984 82.923H150.834L150.962 84.5598H150.792C150.971 84 151.269 83.5682 151.684 83.2646C152.1 82.9515 152.605 82.7949 153.2 82.7949C153.804 82.7949 154.295 82.942 154.673 83.2361C155.051 83.5303 155.301 83.9857 155.424 84.6025H155.211C155.381 84.0522 155.693 83.6157 156.146 83.2931C156.599 82.961 157.133 82.7949 157.747 82.7949C158.521 82.7949 159.107 83.0179 159.503 83.4639C159.9 83.9098 160.098 84.6072 160.098 85.5561V90.0537H159.234V85.613C159.234 84.8919 159.107 84.37 158.852 84.0474C158.597 83.7153 158.181 83.5493 157.605 83.5493C156.963 83.5493 156.453 83.7675 156.075 84.204C155.707 84.6404 155.523 85.2287 155.523 85.9688V90.0537H154.659V85.613C154.659 84.8919 154.531 84.37 154.276 84.0474C154.021 83.7153 153.611 83.5493 153.044 83.5493C152.402 83.5493 151.892 83.7675 151.514 84.204C151.146 84.6404 150.962 85.2287 150.962 85.9688V90.0537H150.098Z" fill="#791616"/>
<path d="M125.973 90.1664C125.142 90.1664 124.509 89.9434 124.075 89.4974C123.65 89.042 123.438 88.3446 123.438 87.4052V82.9219H124.302V87.3483C124.302 88.0694 124.448 88.596 124.741 88.9281C125.033 89.2602 125.482 89.4263 126.086 89.4263C126.757 89.4263 127.295 89.208 127.701 88.7716C128.117 88.3256 128.324 87.7373 128.324 87.0067V82.9219H129.188V90.0525H128.339V88.373H128.523C128.324 88.9519 127.999 89.3978 127.545 89.7109C127.101 90.0146 126.577 90.1664 125.973 90.1664Z" fill="#791616"/>
<path d="M100.674 90.0538V83.6205H99.2578V82.9231H100.887L100.674 83.1509V81.9126C100.674 81.1535 100.863 80.5652 101.241 80.1477C101.619 79.7302 102.157 79.5215 102.856 79.5215C103.035 79.5215 103.219 79.5405 103.408 79.5784C103.597 79.6069 103.753 79.6448 103.876 79.6923V80.4609C103.762 80.4134 103.625 80.3707 103.465 80.3328C103.304 80.2948 103.134 80.2758 102.955 80.2758C102.643 80.2758 102.379 80.3422 102.162 80.4751C101.954 80.6079 101.793 80.8024 101.68 81.0586C101.576 81.3053 101.524 81.6232 101.524 82.0122V83.1509L101.383 82.9231H103.564V83.6205H101.538V90.0538H100.674Z" fill="#791616"/>
<path d="M76.4507 90.0537V84.5883C76.4507 84.3131 76.4413 84.0379 76.4224 83.7628C76.4129 83.4781 76.3893 83.1982 76.3516 82.923H77.2015L77.3148 84.5598L77.1448 84.574C77.2392 84.1755 77.4092 83.8482 77.6547 83.592C77.9003 83.3263 78.1836 83.127 78.5046 82.9942C78.8257 82.8613 79.1562 82.7949 79.4962 82.7949C79.6189 82.7949 79.7322 82.8044 79.8361 82.8234C79.9494 82.8329 80.0533 82.8519 80.1478 82.8803L80.1194 83.6631C80.0061 83.6252 79.8928 83.6014 79.7795 83.592C79.6661 83.5825 79.5434 83.5777 79.4112 83.5777C78.9862 83.5777 78.6132 83.6821 78.2922 83.8908C77.9805 84.0996 77.7397 84.3653 77.5697 84.6879C77.3998 85.0105 77.3148 85.3379 77.3148 85.67V90.0537H76.4507Z" fill="#791616"/>
<path d="M52.2305 90.1675C51.5884 90.1675 51.0312 90.0205 50.5591 89.7263C50.0869 89.4322 49.7234 89.0099 49.4684 88.4596C49.2134 87.9093 49.0859 87.2498 49.0859 86.4812C49.0859 85.7127 49.2134 85.0579 49.4684 84.5171C49.7328 83.9668 50.1011 83.5445 50.5733 83.2504C51.0454 82.9467 51.5978 82.7949 52.2305 82.7949C52.8821 82.7949 53.444 82.9657 53.9162 83.3073C54.3978 83.6489 54.7141 84.1138 54.8652 84.7021H54.6952L54.8369 82.923H55.6726C55.6443 83.1982 55.616 83.4686 55.5876 83.7343C55.5687 84 55.5593 84.2609 55.5593 84.5171V90.0537H54.6952V88.2746H54.851C54.7 88.8629 54.3836 89.3278 53.902 89.6694C53.4298 90.0015 52.8727 90.1675 52.2305 90.1675ZM52.3439 89.4274C53.071 89.4274 53.647 89.176 54.072 88.6731C54.4969 88.1702 54.7094 87.4396 54.7094 86.4812C54.7094 85.5229 54.4969 84.7923 54.072 84.2894C53.647 83.7865 53.071 83.535 52.3439 83.535C51.6167 83.535 51.036 83.7865 50.6016 84.2894C50.1766 84.7923 49.9642 85.5229 49.9642 86.4812C49.9642 87.4396 50.1766 88.1702 50.6016 88.6731C51.036 89.176 51.6167 89.4274 52.3439 89.4274Z" fill="#791616"/>
<path d="M22.6133 93.128V84.5171C22.6133 84.2609 22.6039 84 22.585 83.7343C22.5661 83.4686 22.5378 83.1982 22.5 82.923H23.3499L23.4915 84.7021H23.3216C23.4821 84.1138 23.7937 83.6489 24.2564 83.3073C24.7192 82.9657 25.281 82.7949 25.9421 82.7949C26.5842 82.7949 27.1366 82.9467 27.5994 83.2504C28.0715 83.5445 28.4398 83.9668 28.7042 84.5171C28.9686 85.0579 29.1008 85.7127 29.1008 86.4812C29.1008 87.2498 28.9686 87.9093 28.7042 88.4596C28.4493 89.0099 28.0857 89.4322 27.6135 89.7263C27.1414 90.0205 26.5842 90.1675 25.9421 90.1675C25.2905 90.1675 24.7286 90.0015 24.2564 89.6694C23.7937 89.3278 23.4821 88.8629 23.3216 88.2746H23.4774V93.128H22.6133ZM25.8288 89.4274C26.5559 89.4274 27.1366 89.176 27.571 88.6731C28.0054 88.1702 28.2226 87.4396 28.2226 86.4812C28.2226 85.5229 28.0054 84.7923 27.571 84.2894C27.1366 83.7865 26.5559 83.535 25.8288 83.535C25.1111 83.535 24.535 83.7865 24.1006 84.2894C23.6757 84.7923 23.4632 85.5229 23.4632 86.4812C23.4632 87.4396 23.6757 88.1702 24.1006 88.6731C24.535 89.176 25.1111 89.4274 25.8288 89.4274Z" fill="#791616"/>
</svg>
