<svg width="23" height="25" viewBox="0 0 23 25" fill="none" xmlns="http://www.w3.org/2000/svg">
<path d="M6.4375 11.6793V11.666" stroke="black" stroke-width="1.5" stroke-linecap="round" stroke-linejoin="round"/>
<path d="M17.1016 11.6793V11.666" stroke="black" stroke-width="1.5" stroke-linecap="round" stroke-linejoin="round"/>
<path d="M6.4375 7.66667V6.33333C6.4375 4.91884 6.99941 3.56229 7.99959 2.56209C8.99979 1.56191 10.3563 1 11.7708 1C13.1854 1 14.5419 1.56191 15.542 2.56209C16.5423 3.56229 17.1042 4.91884 17.1042 6.33333V7.66667" stroke="black" stroke-width="1.5" stroke-linecap="round" stroke-linejoin="round"/>
<path d="M22.1973 20.7779L21.3084 10.1112C21.1932 8.72911 20.0379 7.66602 18.6509 7.66602H17.1047H6.43799H4.89168C3.50477 7.66602 2.3494 8.72911 2.23423 10.1112L1.34533 20.7779C1.21577 22.3326 2.44268 23.666 4.00279 23.666H19.5399C21.1 23.666 22.3269 22.3326 22.1973 20.7779Z" stroke="black" stroke-width="1.5" stroke-linecap="round" stroke-linejoin="round"/>
</svg>
